<svg width="22" height="24" viewBox="0 0 22 24" fill="none" xmlns="http://www.w3.org/2000/svg">
<path d="M13.9279 9.82535C13.0444 10.3846 12.0873 10.6643 11.0566 10.6643C10.3756 10.6643 9.71759 10.5335 9.08259 10.2719C8.4476 10.0103 7.88622 9.64494 7.39847 9.17585C6.91071 8.70677 6.538 8.16101 6.28032 7.53858C6.02264 6.91614 5.8938 6.27115 5.8938 5.60361C5.8938 4.5572 6.18369 3.61002 6.76347 2.76206C7.34325 1.91411 8.10709 1.29618 9.05499 0.908285C10.0029 0.520391 11.0106 0.425673 12.0781 0.62413C13.072 0.804546 13.9463 1.2601 14.701 1.99078C15.4556 2.72147 15.9295 3.58747 16.1228 4.58878C16.3161 5.59008 16.2194 6.56884 15.8329 7.52505C15.4464 8.48125 14.8114 9.24802 13.9279 9.82535ZM12.6579 3.24919C12.1794 2.94248 11.6456 2.78912 11.0566 2.78912C10.2836 2.78912 9.60256 3.05975 9.01357 3.601C8.4614 4.17833 8.18531 4.84587 8.18531 5.60361C8.18531 6.18095 8.34636 6.70415 8.66846 7.17324C8.99057 7.64232 9.4185 7.98511 9.95227 8.20161C10.486 8.41811 11.0382 8.47223 11.6088 8.36398C12.1794 8.25573 12.6717 7.99864 13.0858 7.5927C13.5 7.18677 13.7623 6.70415 13.8727 6.14486C13.9831 5.58557 13.9279 5.04432 13.707 4.52112C13.4862 3.99791 13.1365 3.57393 12.6579 3.24919ZM3.74032 14.7778C4.69742 13.8216 5.81097 13.0864 7.08097 12.5722C8.35097 12.058 9.67618 11.8009 11.0566 11.8009C12.437 11.8009 13.7623 12.058 15.0323 12.5722C16.3023 13.0864 17.4204 13.8171 18.3867 14.7642C19.353 15.7114 20.0984 16.8075 20.623 18.0523C21.1476 19.2972 21.4099 20.5962 21.4099 21.9493C21.4099 22.2741 21.2902 22.5447 21.0509 22.7612C20.8117 22.9777 20.5448 23.0859 20.2503 23.0859H14.5077C14.1948 23.0859 13.9233 22.9732 13.6932 22.7477C13.4632 22.5221 13.3481 22.256 13.3481 21.9493C13.3481 21.6426 13.4632 21.3765 13.6932 21.151C13.9233 20.9255 14.1948 20.8127 14.5077 20.8127H19.0355C18.8883 19.8745 18.5846 18.986 18.1244 18.147C17.6643 17.3081 17.0661 16.5819 16.3299 15.9685C15.5936 15.3551 14.7746 14.8815 13.8727 14.5477C12.9708 14.214 12.0321 14.0471 11.0566 14.0471C10.0811 14.0471 9.14241 14.214 8.24053 14.5477C7.33865 14.8815 6.51959 15.3551 5.78336 15.9685C5.04713 16.5819 4.44894 17.3081 3.9888 18.147C3.52865 18.986 3.22496 19.8745 3.07771 20.8127H7.60553C7.90002 20.8127 8.17611 20.9209 8.43379 21.1374C8.65466 21.39 8.76509 21.6607 8.76509 21.9493C8.76509 22.238 8.65466 22.5086 8.43379 22.7612C8.17611 22.9777 7.90002 23.0859 7.60553 23.0859H1.86293C1.56844 23.0859 1.30156 22.9777 1.06228 22.7612C0.823007 22.5447 0.703369 22.2741 0.703369 21.9493C0.703369 20.5962 0.965651 19.3017 1.49022 18.0659C2.01478 16.83 2.76482 15.734 3.74032 14.7778Z" fill="#030712"/>
</svg>
