<svg width="29" height="23" viewBox="0 0 29 23" fill="none" xmlns="http://www.w3.org/2000/svg">
<path d="M26.1983 0.0946636H1.27754C0.970635 0.134775 0.71488 0.275164 0.510275 0.515831C0.305671 0.756498 0.203369 1.02725 0.203369 1.32808C0.203369 1.62892 0.305671 1.90468 0.510275 2.15538C0.71488 2.40607 0.970635 2.55148 1.27754 2.59159H6.21873L5.3287 13.6924V13.903C5.3287 14.5848 5.57934 15.1715 6.08062 15.6628C6.5819 16.1542 7.18037 16.3999 7.87603 16.3999H23.5589C24.1727 16.3999 24.7098 16.2144 25.1702 15.8433C25.6306 15.4723 25.9221 15.016 26.0449 14.4745L28.6843 3.16317C28.7252 2.9225 28.7456 2.73198 28.7456 2.59159C28.7456 1.88964 28.5001 1.298 28.0091 0.816666C27.518 0.335331 26.9144 0.0946636 26.1983 0.0946636ZM23.5589 13.8729H7.87603L8.76605 2.59159H26.1983L23.5589 13.8729ZM10.2392 22.6572C10.9553 22.6572 11.564 22.4115 12.0653 21.9202C12.5666 21.4288 12.8172 20.8322 12.8172 20.1302C12.8172 19.4283 12.5666 18.8366 12.0653 18.3553C11.564 17.874 10.9553 17.6333 10.2392 17.6333C9.54355 17.6333 8.94508 17.874 8.4438 18.3553C7.94252 18.8366 7.69188 19.4283 7.69188 20.1302C7.69188 20.8322 7.94252 21.4288 8.4438 21.9202C8.94508 22.4115 9.54355 22.6572 10.2392 22.6572ZM21.7482 22.6572C22.4643 22.6572 23.073 22.4115 23.5743 21.9202C24.0756 21.4288 24.3262 20.8322 24.3262 20.1302C24.3262 19.4283 24.0756 18.8366 23.5743 18.3553C23.073 17.874 22.4643 17.6333 21.7482 17.6333C21.0525 17.6333 20.4541 17.874 19.9528 18.3553C19.4515 18.8366 19.2009 19.4283 19.2009 20.1302C19.2009 20.8322 19.4515 21.4288 19.9528 21.9202C20.4541 22.4115 21.0525 22.6572 21.7482 22.6572Z" fill="#030712"/>
</svg>
