<svg width="17" height="19" viewBox="0 0 17 19" fill="none" xmlns="http://www.w3.org/2000/svg">
<path d="M1.77588 8.86719V11.2782C1.77588 14.3089 1.77588 15.8247 2.71779 16.7658C3.6589 17.7077 5.17465 17.7077 8.20533 17.7077H9.00901C12.0397 17.7077 13.5554 17.7077 14.4966 16.7658M15.4385 8.86719V11.2782C15.4385 12.2185 15.4385 13.0126 15.4103 13.6893" stroke="black" stroke-width="1.5" stroke-linecap="round"/>
<path d="M6.59822 1.63379H10.6166M6.59822 1.63379L6.07422 6.87138C6.0397 7.22481 6.07951 7.58156 6.19111 7.91868C6.30271 8.2558 6.48361 8.56584 6.7222 8.82887C6.96079 9.09189 7.25177 9.30208 7.57645 9.44592C7.90112 9.58976 8.25231 9.66407 8.60742 9.66407C8.96253 9.66407 9.31372 9.58976 9.6384 9.44592C9.96307 9.30208 10.2541 9.09189 10.4926 8.82887C10.7312 8.56584 10.9121 8.2558 11.0237 7.91868C11.1353 7.58156 11.1751 7.22481 11.1406 6.87138L10.6166 1.63379M6.59822 1.63379H4.92495C4.19521 1.63379 3.83034 1.63379 3.5169 1.71978C3.1909 1.8092 2.88735 1.96616 2.62594 2.18049C2.36454 2.39482 2.15112 2.66173 1.99955 2.96388M6.59822 1.63379L6.01555 7.45646C5.9848 7.78969 5.88636 8.11314 5.72627 8.40701C5.56617 8.70087 5.34778 8.95897 5.08448 9.16551C4.82117 9.37204 4.51848 9.52266 4.19493 9.60815C3.87139 9.69364 3.53381 9.7122 3.20284 9.66269C2.87188 9.61318 2.5545 9.49664 2.27014 9.32021C1.98578 9.14378 1.74042 8.91118 1.54908 8.63663C1.35774 8.36208 1.22444 8.05137 1.15735 7.72352C1.09026 7.39567 1.09079 7.05757 1.1589 6.72993L1.21355 6.45588M10.6166 1.63379H12.2899C13.0196 1.63379 13.3845 1.63379 13.6979 1.71978C14.0239 1.8092 14.3275 1.96616 14.5889 2.18049C14.8503 2.39482 15.0637 2.66173 15.2153 2.96388C15.3608 3.25321 15.4323 3.61165 15.5753 4.32693L16.0559 6.72993C16.1241 7.05757 16.1246 7.39567 16.0575 7.72352C15.9904 8.05137 15.8571 8.36208 15.6658 8.63663C15.4744 8.91118 15.2291 9.14378 14.9447 9.32021C14.6603 9.49664 14.343 9.61318 14.012 9.66269C13.681 9.7122 13.3435 9.69364 13.0199 9.60815C12.6964 9.52266 12.3937 9.37204 12.1304 9.16551C11.8671 8.95897 11.6487 8.70087 11.4886 8.40701C11.3285 8.11314 11.23 7.78969 11.1993 7.45646L10.6166 1.63379ZM6.59822 17.3056V14.8945C6.59822 14.1431 6.59822 13.7678 6.75976 13.4881C6.86556 13.3048 7.01773 13.1527 7.20098 13.0469C7.48066 12.8853 7.85598 12.8853 8.60742 12.8853C9.35886 12.8853 9.73418 12.8853 10.0139 13.0469C10.1971 13.1527 10.3493 13.3048 10.4551 13.4881C10.6166 13.7678 10.6166 14.1431 10.6166 14.8945V17.3056" stroke="black" stroke-width="1.5" stroke-linecap="round"/>
</svg>
