<svg width="16" height="15" viewBox="0 0 16 15" fill="none" xmlns="http://www.w3.org/2000/svg">
<path d="M6.85742 14.3838V12.8838H12.8574V7.55879C12.8574 6.09629 12.3482 4.85579 11.3297 3.83729C10.3112 2.81879 9.07042 2.30929 7.60742 2.30879C6.14492 2.30879 4.90442 2.81829 3.88592 3.83729C2.86742 4.85629 2.35792 6.09679 2.35742 7.55879V12.1338H0.107422V7.84004H0.857422L0.913672 6.84629C1.01367 5.99629 1.26067 5.20879 1.65467 4.48379C2.04867 3.75879 2.54242 3.12754 3.13592 2.59004C3.72942 2.05254 4.41042 1.63379 5.17892 1.33379C5.94742 1.03379 6.75692 0.883789 7.60742 0.883789C8.45742 0.883789 9.26367 1.03379 10.0262 1.33379C10.7887 1.63379 11.4699 2.04954 12.0699 2.58104C12.6699 3.11204 13.1637 3.74004 13.5512 4.46504C13.9387 5.19004 14.1887 5.97754 14.3012 6.82754L14.3574 7.84004H15.1074V12.1338H14.3574V14.3838H6.85742ZM5.35742 9.13379C5.14492 9.13379 4.96692 9.06179 4.82342 8.91779C4.67992 8.77379 4.60792 8.59579 4.60742 8.38379C4.60742 8.17129 4.67942 7.99329 4.82342 7.84979C4.96742 7.70629 5.14542 7.63429 5.35742 7.63379C5.56992 7.63379 5.74817 7.70579 5.89217 7.84979C6.03617 7.99379 6.10792 8.17179 6.10742 8.38379C6.10742 8.59629 6.03542 8.77454 5.89142 8.91854C5.74742 9.06254 5.56942 9.13429 5.35742 9.13379ZM9.85742 9.13379C9.64492 9.13379 9.46692 9.06179 9.32342 8.91779C9.17992 8.77379 9.10792 8.59579 9.10742 8.38379C9.10742 8.17129 9.17942 7.99329 9.32342 7.84979C9.46742 7.70629 9.64542 7.63429 9.85742 7.63379C10.0699 7.63379 10.2482 7.70579 10.3922 7.84979C10.5362 7.99379 10.6079 8.17179 10.6074 8.38379C10.6074 8.59629 10.5354 8.77454 10.3914 8.91854C10.2474 9.06254 10.0694 9.13429 9.85742 9.13379ZM3.12617 7.97129C3.03867 6.64629 3.43867 5.50879 4.32617 4.55879C5.21367 3.60879 6.31992 3.13379 7.64492 3.13379C8.75742 3.13379 9.73567 3.48679 10.5797 4.19279C11.4237 4.89879 11.9329 5.80229 12.1074 6.90329C10.9699 6.89029 9.92317 6.58379 8.96717 5.98379C8.01117 5.38379 7.27667 4.57129 6.76367 3.54629C6.56367 4.54629 6.14192 5.43704 5.49842 6.21854C4.85492 7.00004 4.06417 7.58429 3.12617 7.97129Z" fill="black"/>
</svg>
