<svg width="16" height="16" viewBox="0 0 16 16" fill="none" xmlns="http://www.w3.org/2000/svg">
<path d="M6.66992 9.5169C6.42128 9.5169 6.18282 9.41813 6.00701 9.24232C5.83119 9.0665 5.73242 8.82804 5.73242 8.5794V3.03222C4.34486 3.27104 3.09724 4.02137 2.23587 5.13511C1.3745 6.24884 0.961956 7.64504 1.07969 9.04807C1.19742 10.4511 1.83688 11.759 2.87181 12.7136C3.90675 13.6682 5.26196 14.2002 6.66992 14.2044C7.99927 14.2042 9.28563 13.7334 10.301 12.8754C11.3164 12.0174 11.9952 10.8276 12.2171 9.5169H6.66992ZM5.73523 2.08253C6.24805 2.0094 6.66992 2.4369 6.66992 2.9544V8.5794H12.2949C12.8124 8.5794 13.2399 9.00128 13.1668 9.51409C12.9266 11.1535 12.0753 12.6414 10.7837 13.6793C9.49213 14.7172 7.85584 15.2283 6.20315 15.11C4.55045 14.9917 3.00362 14.2528 1.87303 13.0416C0.742432 11.8303 0.111713 10.2363 0.107422 8.5794C0.107505 7.00075 0.676493 5.47499 1.71011 4.28176C2.74372 3.08854 4.17273 2.30776 5.73523 2.08253ZM8.54492 6.7044V1.0794C10.0368 1.0794 11.4675 1.67204 12.5224 2.72693C13.5773 3.78182 14.1699 5.21256 14.1699 6.7044H8.54492ZM14.228 7.6419C14.6949 7.6419 15.0971 7.29878 15.1065 6.8319L15.1074 6.7044C15.1075 5.83185 14.9335 4.96805 14.5957 4.16353C14.2579 3.35901 13.7631 2.62994 13.1401 2.01896C12.5172 1.40798 11.7786 0.927358 10.9677 0.605219C10.1568 0.283079 9.28981 0.125888 8.41742 0.14284C7.95055 0.152215 7.60742 0.55534 7.60742 1.02128V6.7044C7.60742 6.95304 7.70619 7.1915 7.88201 7.36732C8.05782 7.54313 8.29628 7.6419 8.54492 7.6419H14.228Z" fill="black"/>
</svg>
