<svg width="16" height="16" viewBox="0 0 16 16" fill="none" xmlns="http://www.w3.org/2000/svg">
<g clip-path="url(#clip0_77_1342)">
<path d="M11.2583 9.00422L11.6783 6.28922H9.0683V4.53422C9.0683 4.11422 9.1783 3.77922 9.3983 3.52922C9.6683 3.21922 10.0683 3.06422 10.5983 3.06422H11.7833V0.754219L11.1233 0.664219C10.5933 0.604219 10.1133 0.574219 9.6833 0.574219C8.9633 0.574219 8.3383 0.716719 7.8083 1.00172C7.2783 1.28672 6.8683 1.70422 6.5783 2.25422C6.2883 2.80422 6.1433 3.46422 6.1433 4.23422V6.28922H3.7583V9.00422H6.1433V15.5742H9.0683V9.00422H11.2583Z" fill="#1877F2"/>
</g>
<defs>
<clipPath id="clip0_77_1342">
<rect width="15" height="15" fill="white" transform="matrix(1 0 0 -1 0.785767 15.5742)"/>
</clipPath>
</defs>
</svg>
