<svg width="24" height="25" viewBox="0 0 24 25" fill="none" xmlns="http://www.w3.org/2000/svg">
<path d="M22.501 12.5202C22.501 11.6569 22.4296 11.0269 22.2748 10.3735H12.2153V14.2702H18.12C18.001 15.2385 17.3582 16.6969 15.9296 17.6768L15.9096 17.8073L19.0902 20.222L19.3106 20.2435C21.3343 18.4118 22.501 15.7168 22.501 12.5202Z" fill="#4285F4"/>
<path d="M12.214 22.7872C15.1068 22.7872 17.5353 21.8538 19.3092 20.2438L15.9282 17.6771C15.0235 18.2954 13.8092 18.7271 12.214 18.7271C9.38069 18.7271 6.97596 16.8955 6.11874 14.3638L5.99309 14.3742L2.68583 16.8826L2.64258 17.0004C4.40446 20.4304 8.0235 22.7872 12.214 22.7872Z" fill="#34A853"/>
<path d="M6.12046 14.3636C5.89428 13.7103 5.76337 13.0102 5.76337 12.2869C5.76337 11.5635 5.89428 10.8636 6.10856 10.2102L6.10257 10.0711L2.75386 7.52246L2.64429 7.57353C1.91814 8.99688 1.50146 10.5952 1.50146 12.2869C1.50146 13.9786 1.91814 15.5769 2.64429 17.0002L6.12046 14.3636Z" fill="#FBBC05"/>
<path d="M12.2141 5.84708C14.2259 5.84708 15.583 6.69874 16.3569 7.41046L19.3807 4.51711C17.5236 2.82545 15.1069 1.78711 12.2141 1.78711C8.02353 1.78711 4.40447 4.14376 2.64258 7.57373L6.10686 10.2104C6.97598 7.67877 9.38073 5.84708 12.2141 5.84708Z" fill="#EB4335"/>
</svg>
