<svg width="17" height="17" viewBox="0 0 17 17" fill="none" xmlns="http://www.w3.org/2000/svg">
<path d="M8.83002 4.47403C8.17936 4.47403 7.57936 4.6367 7.03002 4.96203C6.48069 5.28736 6.04335 5.7247 5.71802 6.27403C5.39269 6.82336 5.23002 7.42336 5.23002 8.07403C5.23002 8.7247 5.39269 9.3247 5.71802 9.87403C6.04335 10.4234 6.48069 10.858 7.03002 11.178C7.57936 11.498 8.17936 11.658 8.83002 11.658C9.48069 11.658 10.0807 11.498 10.63 11.178C11.1794 10.858 11.614 10.4234 11.934 9.87403C12.254 9.3247 12.414 8.7247 12.414 8.07403C12.414 7.42336 12.254 6.82336 11.934 6.27403C11.614 5.7247 11.1794 5.28736 10.63 4.96203C10.0807 4.6367 9.48069 4.47403 8.83002 4.47403ZM8.83002 10.41C8.40336 10.41 8.01135 10.306 7.65402 10.098C7.29669 9.89003 7.01402 9.6047 6.80602 9.24203C6.59802 8.87936 6.49402 8.49003 6.49402 8.07403C6.49402 7.65803 6.59802 7.2687 6.80602 6.90603C7.01402 6.54336 7.29669 6.25803 7.65402 6.05003C8.01135 5.84203 8.40336 5.73803 8.83002 5.73803C9.25669 5.73803 9.64869 5.84203 10.006 6.05003C10.3634 6.25803 10.646 6.5407 10.854 6.89803C11.062 7.25536 11.166 7.64736 11.166 8.07403C11.166 8.5007 11.062 8.8927 10.854 9.25003C10.646 9.60736 10.3607 9.89003 9.99802 10.098C9.63535 10.306 9.24602 10.41 8.83002 10.41ZM13.406 4.33003C13.406 4.5647 13.3234 4.7647 13.158 4.93003C12.9927 5.09536 12.7927 5.17803 12.558 5.17803C12.3234 5.17803 12.126 5.09536 11.966 4.93003C11.806 4.7647 11.726 4.5647 11.726 4.33003C11.726 4.09536 11.806 3.89803 11.966 3.73803C12.126 3.57803 12.3234 3.49803 12.558 3.49803C12.7927 3.49803 12.9927 3.57803 13.158 3.73803C13.3234 3.89803 13.406 4.09536 13.406 4.33003ZM15.774 5.17803C15.7527 4.57003 15.662 4.04203 15.502 3.59403C15.3207 3.08203 15.0354 2.63403 14.646 2.25003C14.2567 1.86603 13.806 1.58336 13.294 1.40203C12.846 1.24203 12.318 1.14603 11.71 1.11403C11.134 1.08203 10.1714 1.06603 8.82202 1.06603C7.47269 1.06603 6.51002 1.08203 5.93402 1.11403C5.31536 1.14603 4.78735 1.24203 4.35002 1.40203C3.83802 1.58336 3.39002 1.86603 3.00602 2.25003C2.62202 2.63403 2.33935 3.08203 2.15802 3.59403C1.98735 4.04203 1.89135 4.57003 1.87002 5.17803C1.83802 5.75403 1.82202 6.7167 1.82202 8.06603C1.82202 9.41536 1.83802 10.378 1.87002 10.954C1.89135 11.562 1.98202 12.09 2.14202 12.538C2.32335 13.05 2.61135 13.5034 3.00602 13.898C3.40069 14.2927 3.85402 14.5754 4.36602 14.746C4.79269 14.906 5.31536 14.9967 5.93402 15.018C6.51002 15.0607 7.47269 15.082 8.82202 15.082C10.1714 15.082 11.134 15.0607 11.71 15.018C12.318 14.9967 12.846 14.906 13.294 14.746C13.806 14.5647 14.2567 14.2794 14.646 13.89C15.0354 13.5007 15.3207 13.05 15.502 12.538C15.662 12.09 15.7527 11.562 15.774 10.954C15.806 10.378 15.822 9.41803 15.822 8.07403C15.822 6.73003 15.806 5.7647 15.774 5.17803ZM14.286 12.202C14.1687 12.5007 13.9954 12.7674 13.766 13.002C13.5367 13.2367 13.2674 13.4127 12.958 13.53C12.606 13.6687 12.0354 13.7594 11.246 13.802C10.798 13.8234 10.1527 13.8287 9.31002 13.818H8.35002C7.50736 13.8287 6.86202 13.8234 6.41402 13.802C5.61402 13.7594 5.04335 13.6687 4.70202 13.53C4.39269 13.4127 4.12335 13.2394 3.89402 13.01C3.66469 12.7807 3.49135 12.5114 3.37402 12.202C3.23535 11.85 3.14469 11.2794 3.10202 10.49C3.08069 10.042 3.07535 9.3967 3.08602 8.55403V7.59403C3.07535 6.75136 3.08069 6.10603 3.10202 5.65803C3.14469 4.85803 3.23535 4.28736 3.37402 3.94603C3.49135 3.6367 3.66469 3.36736 3.89402 3.13803C4.12335 2.9087 4.39269 2.73536 4.70202 2.61803C5.04335 2.47936 5.60869 2.3887 6.39802 2.34603C6.84602 2.3247 7.49669 2.31936 8.35002 2.33003H9.31002C10.1527 2.31936 10.798 2.3247 11.246 2.34603C12.0354 2.3887 12.606 2.47936 12.958 2.61803C13.2674 2.73536 13.5367 2.9087 13.766 3.13803C13.9954 3.36736 14.1687 3.6367 14.286 3.94603C14.4247 4.28736 14.5154 4.8527 14.558 5.64203C14.5794 6.09003 14.5847 6.7407 14.574 7.59403V8.55403C14.5847 9.3967 14.5794 10.042 14.558 10.49C14.5154 11.2794 14.4247 11.85 14.286 12.202Z" fill="#FD1D1D"/>
</svg>
