<svg width="16" height="16" viewBox="0 0 16 16" fill="none" xmlns="http://www.w3.org/2000/svg">
<g clip-path="url(#clip0_77_1351)">
<path d="M4.38757 13.6992H1.67257V4.93922H4.38757V13.6992ZM3.02257 3.73922C2.74257 3.73922 2.48007 3.66672 2.23507 3.52172C1.99007 3.37672 1.79757 3.18422 1.65757 2.94422C1.51757 2.70422 1.44757 2.43922 1.44757 2.14922C1.44757 1.85922 1.51757 1.59422 1.65757 1.35422C1.79757 1.11422 1.98757 0.924219 2.22757 0.784219C2.46757 0.644219 2.73257 0.574219 3.02257 0.574219C3.31257 0.574219 3.57757 0.644219 3.81757 0.784219C4.05757 0.924219 4.24757 1.11422 4.38757 1.35422C4.52757 1.59422 4.59757 1.85922 4.59757 2.14922C4.59757 2.43922 4.52757 2.70422 4.38757 2.94422C4.24757 3.18422 4.05507 3.37672 3.81007 3.52172C3.56507 3.66672 3.30257 3.73922 3.02257 3.73922ZM14.5726 13.6992H11.8576V9.43922C11.8576 8.97922 11.8376 8.62922 11.7976 8.38922C11.7376 7.99922 11.6126 7.69922 11.4226 7.48922C11.2026 7.23922 10.8776 7.11422 10.4476 7.11422C9.79757 7.11422 9.34757 7.34422 9.09757 7.80422C8.90757 8.15422 8.81257 8.67422 8.81257 9.36422V13.6992H6.09757V4.93922H8.70757V6.12422H8.73757C8.93757 5.74422 9.24757 5.42422 9.66757 5.16422C10.1476 4.86422 10.6976 4.71422 11.3176 4.71422C12.1876 4.71422 12.8776 4.89922 13.3876 5.26922C13.8376 5.59922 14.1526 6.09422 14.3326 6.75422C14.4926 7.30422 14.5726 8.01422 14.5726 8.88422V13.6992Z" fill="#0077B5"/>
</g>
<defs>
<clipPath id="clip0_77_1351">
<rect width="15" height="15" fill="white" transform="matrix(1 0 0 -1 0.350098 15.5742)"/>
</clipPath>
</defs>
</svg>
