<svg width="16" height="17" viewBox="0 0 16 17" fill="none" xmlns="http://www.w3.org/2000/svg">
<path d="M2.01321 0.300781H9.31047C9.74055 0.300781 10.153 0.476376 10.4571 0.788937C10.7612 1.1015 10.9321 1.52542 10.9321 1.96745V3.63411H9.31047V1.96745H2.01321V15.3008H9.31047V13.6341H10.9321V15.3008C10.9321 15.7428 10.7612 16.1667 10.4571 16.4793C10.153 16.7919 9.74055 16.9674 9.31047 16.9674H2.01321C1.58314 16.9674 1.17067 16.7919 0.866561 16.4793C0.56245 16.1667 0.391602 15.7428 0.391602 15.3008V1.96745C0.391602 1.52542 0.56245 1.1015 0.866561 0.788937C1.17067 0.476376 1.58314 0.300781 2.01321 0.300781Z" fill="black"/>
<path d="M10.1944 11.6261L11.3377 12.8011L15.3917 8.63444L11.3377 4.46777L10.1944 5.64277L12.2863 7.80111H4.4458V9.46777H12.2863L10.1944 11.6261Z" fill="black"/>
</svg>
