<svg width="32" height="29" viewBox="0 0 32 29" fill="none" xmlns="http://www.w3.org/2000/svg">
<g clip-path="url(#clip0_77_1377)">
<path d="M25.2471 4.72064H4.1804C3.52668 4.72064 2.91513 4.86064 2.34576 5.14064C1.77639 5.42064 1.323 5.80331 0.985599 6.28864C0.648194 6.77398 0.479492 7.30598 0.479492 7.88464V21.8846C0.479492 22.4633 0.642922 23.0046 0.969783 23.5086C1.29664 24.0126 1.73949 24.414 2.29831 24.7126C2.85714 25.0113 3.4845 25.1606 4.1804 25.1606H25.2471C25.9008 25.1606 26.5124 25.016 27.0817 24.7266C27.6511 24.4373 28.1045 24.0453 28.4419 23.5506C28.7793 23.056 28.948 22.5006 28.948 21.8846V7.88464C28.948 7.30598 28.7793 6.77398 28.4419 6.28864C28.1045 5.80331 27.6511 5.42064 27.0817 5.14064C26.5124 4.86064 25.9008 4.72064 25.2471 4.72064ZM4.1804 6.48464H25.2471C25.711 6.48464 26.0906 6.62464 26.3858 6.90464C26.6811 7.18464 26.8287 7.51131 26.8287 7.88464V8.58464L15.5045 14.9966C15.2304 15.1086 14.9457 15.1646 14.6505 15.1646C14.3553 15.1646 14.0706 15.1086 13.7964 14.9966L2.59881 8.58464V7.88464C2.59881 7.47398 2.74643 7.13798 3.04166 6.87664C3.33689 6.61531 3.71647 6.48464 4.1804 6.48464ZM25.2471 23.3966H4.1804C3.73755 23.3966 3.36325 23.252 3.05747 22.9626C2.7517 22.6733 2.59881 22.3513 2.59881 21.9966V10.6846L12.8791 16.5086C13.322 16.826 13.9335 16.9846 14.7137 16.9846C15.494 16.9846 16.1055 16.826 16.5484 16.5086L26.8287 10.6846V21.8846C26.8287 22.2953 26.6811 22.65 26.3858 22.9486C26.0906 23.2473 25.711 23.3966 25.2471 23.3966Z" fill="white"/>
</g>
<defs>
<clipPath id="clip0_77_1377">
<rect width="31.6317" height="28" fill="white" transform="matrix(1 0 0 -1 0.298706 28.8848)"/>
</clipPath>
</defs>
</svg>
