<svg width="16" height="16" viewBox="0 0 16 16" fill="none" xmlns="http://www.w3.org/2000/svg">
<path d="M7.8916 1.56283C6.34451 1.56283 4.86077 2.05449 3.76681 2.92966C2.67285 3.80483 2.05827 4.99181 2.05827 6.22949C2.05827 8.13749 3.54327 9.97816 5.17327 11.4042C6.00717 12.1302 6.91654 12.7984 7.8916 13.4015C8.86664 12.7989 9.77602 12.1311 10.6099 11.4055C12.2399 9.97816 13.7249 8.13816 13.7249 6.22949C13.7249 4.99181 13.1104 3.80483 12.0164 2.92966C10.9224 2.05449 9.4387 1.56283 7.8916 1.56283ZM7.8916 15.0388L7.4191 14.7788L7.4166 14.7775L7.4116 14.7742L7.39494 14.7648L7.33244 14.7295C6.98738 14.5288 6.65 14.3198 6.32077 14.1028C5.47691 13.5483 4.68248 12.9472 3.94327 12.3042C2.23994 10.8135 0.391602 8.65416 0.391602 6.22949C0.391602 4.63819 1.18178 3.11207 2.5883 1.98685C3.99482 0.861633 5.90248 0.229492 7.8916 0.229492C9.88072 0.229492 11.7884 0.861633 13.1949 1.98685C14.6014 3.11207 15.3916 4.63819 15.3916 6.22949C15.3916 8.65416 13.5433 10.8142 11.8399 12.3042C10.8748 13.1439 9.816 13.9116 8.6766 14.5975C8.58166 14.6542 8.48582 14.71 8.3891 14.7648L8.3716 14.7742L8.3666 14.7775L8.36493 14.7782L7.8916 15.0388ZM7.8916 4.89616C7.44957 4.89616 7.02565 5.03663 6.71309 5.28668C6.40053 5.53673 6.22494 5.87587 6.22494 6.22949C6.22494 6.58311 6.40053 6.92225 6.71309 7.1723C7.02565 7.42235 7.44957 7.56283 7.8916 7.56283C8.33363 7.56283 8.75755 7.42235 9.07011 7.1723C9.38267 6.92225 9.55827 6.58311 9.55827 6.22949C9.55827 5.87587 9.38267 5.53673 9.07011 5.28668C8.75755 5.03663 8.33363 4.89616 7.8916 4.89616ZM4.55827 6.22949C4.55827 5.52225 4.90946 4.84397 5.53458 4.34387C6.1597 3.84378 7.00755 3.56283 7.8916 3.56283C8.77566 3.56283 9.6235 3.84378 10.2486 4.34387C10.8737 4.84397 11.2249 5.52225 11.2249 6.22949C11.2249 6.93674 10.8737 7.61501 10.2486 8.11511C9.6235 8.61521 8.77566 8.89616 7.8916 8.89616C7.00755 8.89616 6.1597 8.61521 5.53458 8.11511C4.90946 7.61501 4.55827 6.93674 4.55827 6.22949Z" fill="black"/>
</svg>
