<svg width="18" height="15" viewBox="0 0 18 15" fill="none" xmlns="http://www.w3.org/2000/svg">
<path d="M6.6416 6.88379C7.47003 6.88379 8.1416 6.21222 8.1416 5.38379C8.1416 4.55536 7.47003 3.88379 6.6416 3.88379C5.81317 3.88379 5.1416 4.55536 5.1416 5.38379C5.1416 6.21222 5.81317 6.88379 6.6416 6.88379Z" stroke="black" stroke-width="1.5"/>
<path d="M9.6416 9.88379C9.6416 10.7125 9.6416 11.3838 6.6416 11.3838C3.6416 11.3838 3.6416 10.7125 3.6416 9.88379C3.6416 9.05504 4.9841 8.38379 6.6416 8.38379C8.2991 8.38379 9.6416 9.05504 9.6416 9.88379Z" stroke="black" stroke-width="1.5"/>
<path d="M16.3916 7.63379C16.3916 10.462 16.3916 11.8765 15.5126 12.7548C14.6344 13.6338 13.2199 13.6338 10.3916 13.6338H7.3916C4.56335 13.6338 3.14885 13.6338 2.2706 12.7548C1.3916 11.8765 1.3916 10.462 1.3916 7.63379C1.3916 4.80554 1.3916 3.39104 2.2706 2.51279C3.14885 1.63379 4.56335 1.63379 7.3916 1.63379H10.3916C13.2199 1.63379 14.6344 1.63379 15.5126 2.51279C15.8651 2.86529 16.0759 3.30329 16.2026 3.88379M14.1416 7.63379H11.1416M14.1416 5.38379H10.3916M14.1416 9.88379H11.8916" stroke="black" stroke-width="1.5" stroke-linecap="round"/>
</svg>
