<svg width="32" height="23" viewBox="0 0 32 23" fill="none" xmlns="http://www.w3.org/2000/svg">
<path d="M13.0997 20.7272H18.6225C18.6225 21.2971 18.3315 21.8437 17.8137 22.2467C17.2958 22.6496 16.5935 22.876 15.8611 22.876C15.1287 22.876 14.4264 22.6496 13.9085 22.2467C13.3907 21.8437 13.0997 21.2971 13.0997 20.7272ZM28.2872 18.5784V19.6528H3.43497V18.5784L6.19633 16.4296V9.98315C6.19633 6.65248 8.99912 3.71935 13.0997 2.77387V2.46229C13.0997 1.89239 13.3907 1.34583 13.9085 0.94285C14.4264 0.539869 15.1287 0.313477 15.8611 0.313477C16.5935 0.313477 17.2958 0.539869 17.8137 0.94285C18.3315 1.34583 18.6225 1.89239 18.6225 2.46229V2.77387C22.7231 3.71935 25.5259 6.65248 25.5259 9.98315V16.4296L28.2872 18.5784ZM22.7645 9.98315C22.7645 8.55839 22.0372 7.19199 20.7425 6.18454C19.4479 5.17709 17.692 4.61111 15.8611 4.61111C14.0302 4.61111 12.2743 5.17709 10.9797 6.18454C9.68502 7.19199 8.9577 8.55839 8.9577 9.98315V17.504H22.7645V9.98315ZM26.5614 1.59202L24.6008 3.11768C25.7686 4.01526 26.6957 5.0843 27.3285 6.26282C27.9613 7.44134 28.2872 8.70589 28.2872 9.98315H31.0486C31.0486 6.83513 29.447 3.8053 26.5614 1.59202ZM0.67361 9.98315H3.43497C3.43497 7.40457 4.76043 4.93343 7.12139 3.11768L5.16082 1.59202C3.7358 2.6896 2.60528 3.99662 1.83496 5.43712C1.06464 6.87763 0.669877 8.4229 0.67361 9.98315Z" fill="#333333"/>
</svg>
