<svg width="16" height="18" viewBox="0 0 16 18" fill="none" xmlns="http://www.w3.org/2000/svg">
<path d="M11.4862 4.91859H13.9528C14.102 4.91873 14.2458 4.97425 14.3564 5.07439C14.467 5.17452 14.5365 5.31214 14.5514 5.46058L14.9188 9.13405H13.7071L13.406 6.12301H11.4862V7.92963C11.4862 8.08935 11.4227 8.24252 11.3098 8.35546C11.1968 8.46839 11.0437 8.53184 10.884 8.53184C10.7242 8.53184 10.5711 8.46839 10.4581 8.35546C10.3452 8.24252 10.2817 8.08935 10.2817 7.92963V6.12301H5.46408V7.92963C5.46408 8.08935 5.40063 8.24252 5.28769 8.35546C5.17476 8.46839 5.02158 8.53184 4.86187 8.53184C4.70215 8.53184 4.54898 8.46839 4.43604 8.35546C4.32311 8.24252 4.25966 8.08935 4.25966 7.92963V6.12301H2.33861L1.37508 15.7583H7.87291V16.9628H0.709036C0.624924 16.9627 0.541763 16.945 0.464909 16.9108C0.388056 16.8766 0.319215 16.8267 0.262821 16.7643C0.206428 16.7019 0.163734 16.6284 0.137488 16.5485C0.111243 16.4686 0.102029 16.384 0.110441 16.3003L1.19442 5.46058C1.20934 5.31214 1.27882 5.17452 1.38941 5.07439C1.5 4.97425 1.64383 4.91873 1.79301 4.91859H4.25966V4.49825C4.25966 2.40979 5.86876 0.703125 7.87291 0.703125C9.87706 0.703125 11.4862 2.40979 11.4862 4.49825V4.91979V4.91859ZM10.2817 4.91859V4.49825C10.2817 3.06017 9.19536 1.90754 7.87291 1.90754C6.55046 1.90754 5.46408 3.06017 5.46408 4.49825V4.91979H10.2817V4.91859ZM14.0721 14.024L12.6906 12.6437V16.9628C12.6906 17.1225 12.6271 17.2757 12.5142 17.3886C12.4013 17.5015 12.2481 17.565 12.0884 17.565C11.9287 17.565 11.7755 17.5015 11.6625 17.3886C11.5496 17.2757 11.4862 17.1225 11.4862 16.9628V12.6437L10.1059 14.024C10.0504 14.0815 9.9839 14.1274 9.91043 14.1589C9.83696 14.1905 9.75794 14.2071 9.67797 14.2078C9.59801 14.2085 9.51872 14.1933 9.44471 14.163C9.3707 14.1327 9.30346 14.088 9.24692 14.0315C9.19037 13.9749 9.14566 13.9077 9.11538 13.8337C9.0851 13.7597 9.06986 13.6804 9.07056 13.6004C9.07125 13.5204 9.08786 13.4414 9.11942 13.3679C9.15099 13.2945 9.19686 13.228 9.25438 13.1725L11.6632 10.7636C11.7761 10.6507 11.9293 10.5873 12.089 10.5873C12.2487 10.5873 12.4018 10.6507 12.5147 10.7636L14.9236 13.1725C14.9811 13.228 15.027 13.2945 15.0585 13.3679C15.0901 13.4414 15.1067 13.5204 15.1074 13.6004C15.1081 13.6804 15.0929 13.7597 15.0626 13.8337C15.0323 13.9077 14.9876 13.9749 14.931 14.0315C14.8745 14.088 14.8073 14.1327 14.7332 14.163C14.6592 14.1933 14.5799 14.2085 14.5 14.2078C14.42 14.2071 14.341 14.1905 14.2675 14.1589C14.1941 14.1274 14.1276 14.0815 14.0721 14.024Z" fill="black"/>
</svg>
