<svg width="32" height="29" viewBox="0 0 32 29" fill="none" xmlns="http://www.w3.org/2000/svg">
<g clip-path="url(#clip0_77_1374)">
<path d="M25.5552 16.6204C24.1845 16.4897 23.0458 16.219 22.139 15.8084C21.4853 15.5844 20.8157 15.5424 20.1304 15.6824C19.445 15.8224 18.8387 16.0977 18.3115 16.5084L17.1095 17.6844C14.4525 16.1537 12.2594 14.2124 10.5302 11.8604L11.7322 10.7964C12.2383 10.3484 12.5599 9.82103 12.6969 9.21436C12.834 8.6077 12.776 8.0057 12.5229 7.40836C12.1434 6.53103 11.8798 5.52303 11.7322 4.38436C11.5845 3.61903 11.1575 2.9797 10.4511 2.46636C9.74463 1.95303 8.93803 1.69636 8.03125 1.69636H3.82424C3.17052 1.7337 2.58533 1.92036 2.06868 2.25636C1.55203 2.59236 1.15136 3.0217 0.866678 3.54436C0.581993 4.06703 0.460738 4.6177 0.502914 5.19636C0.713792 7.06303 1.17772 8.8877 1.89471 10.6704C2.61169 12.453 3.56064 14.1284 4.74156 15.6964C6.85034 18.6457 9.57066 21.0537 12.9025 22.9204C14.695 23.9097 16.5929 24.7217 18.5962 25.3564C20.5996 25.991 22.6556 26.4297 24.7644 26.6724H25.1756C25.6185 26.6724 26.0613 26.5884 26.5041 26.4204C26.947 26.2524 27.3371 26.0237 27.6745 25.7344C28.0119 25.445 28.2702 25.1044 28.4495 24.7124C28.6287 24.3204 28.7184 23.919 28.7184 23.5084V20.0084C28.7184 19.1497 28.4231 18.403 27.8327 17.7684C27.2422 17.1337 26.4831 16.751 25.5552 16.6204ZM26.599 19.8964V23.3964C26.599 23.7884 26.4303 24.143 26.0929 24.4604C25.7134 24.759 25.3127 24.9084 24.8909 24.9084H24.7644C22.8243 24.7404 20.937 24.367 19.1023 23.7884C17.2044 23.191 15.4436 22.3977 13.8198 21.4084C12.3226 20.5497 10.9255 19.5464 9.62865 18.3984C8.33175 17.2504 7.18774 16.0044 6.19662 14.6604C5.14223 13.2044 4.2829 11.655 3.61863 10.0124C2.95437 8.3697 2.49571 6.6897 2.24266 4.97236C2.30592 4.54303 2.49571 4.1837 2.81203 3.89436C3.12834 3.60503 3.50792 3.46036 3.95077 3.46036H8.03125C8.43192 3.46036 8.79568 3.58636 9.12254 3.83836C9.4494 4.09036 9.61283 4.38436 9.61283 4.72036C9.65501 5.2057 9.76045 5.74703 9.92915 6.34436C10.0346 6.7177 10.2033 7.25903 10.4353 7.96836L10.5302 8.22036C10.6567 8.51903 10.6883 8.8037 10.625 9.07436C10.5618 9.34503 10.4036 9.5737 10.1506 9.76036L8.69552 11.1604C8.50573 11.2724 8.39502 11.4264 8.36338 11.6224C8.33175 11.8184 8.34757 12.0097 8.41083 12.1964C9.40196 13.7084 10.6092 15.0944 12.0327 16.3544C13.4561 17.6144 15.0219 18.683 16.73 19.5604C16.9198 19.6724 17.1306 19.7097 17.3626 19.6724C17.5946 19.635 17.7738 19.551 17.9003 19.4204L19.6401 17.9084C19.851 17.7217 20.1251 17.591 20.4625 17.5164C20.7999 17.4417 21.0951 17.4604 21.3482 17.5724C22.5713 18.0017 23.8893 18.2724 25.3021 18.3844C25.7028 18.4404 26.0402 18.6224 26.3144 18.9304C26.5885 19.2384 26.6834 19.5604 26.599 19.8964ZM17.1095 3.32036C18.8177 3.4697 20.3676 3.93636 21.7594 4.72036C23.1512 5.50436 24.2899 6.51236 25.1756 7.74436C26.0613 8.97636 26.5885 10.3484 26.7572 11.8604C26.7572 12.0844 26.8574 12.2757 27.0577 12.4344C27.258 12.593 27.4636 12.6724 27.6745 12.6724H27.801C28.0541 12.6724 28.2702 12.5744 28.4495 12.3784C28.6287 12.1824 28.7184 11.963 28.7184 11.7204C28.5075 9.9657 27.8643 8.35103 26.7888 6.87636C25.7555 5.43903 24.4112 4.26303 22.7558 3.34836C21.1004 2.4337 19.271 1.88303 17.2677 1.69636C16.9936 1.69636 16.7458 1.7757 16.5244 1.93436C16.3029 2.09303 16.1922 2.27503 16.1922 2.48036C16.1922 2.6857 16.2818 2.87703 16.4611 3.05436C16.6403 3.2317 16.8565 3.32036 17.1095 3.32036ZM16.1922 7.07236C16.129 7.29636 16.1817 7.51103 16.3504 7.71636C16.5191 7.9217 16.73 8.05236 16.983 8.10836C18.0796 8.29503 19.0338 8.75236 19.8457 9.48036C20.6576 10.2084 21.2006 11.0764 21.4747 12.0844C21.538 12.3084 21.654 12.481 21.8227 12.6024C21.9914 12.7237 22.1812 12.7844 22.392 12.7844H22.5186C22.7927 12.7284 23.0088 12.5977 23.167 12.3924C23.3252 12.187 23.3726 11.963 23.3093 11.7204C23.0563 10.395 22.3868 9.24703 21.3007 8.27636C20.2147 7.3057 18.9125 6.67103 17.3942 6.37236C17.1201 6.31636 16.867 6.34903 16.6351 6.47036C16.4031 6.5917 16.2555 6.79236 16.1922 7.07236Z" fill="white"/>
</g>
<defs>
<clipPath id="clip0_77_1374">
<rect width="31.6317" height="28" fill="white" transform="matrix(1 0 0 -1 0.313965 28.1846)"/>
</clipPath>
</defs>
</svg>
