<svg width="16" height="15" viewBox="0 0 16 15" fill="none" xmlns="http://www.w3.org/2000/svg">
<path d="M15.1074 0.508789H0.107422V5.00879H0.857422V13.2588C0.857422 13.6566 1.01546 14.0381 1.29676 14.3194C1.57807 14.6008 1.9596 14.7588 2.35742 14.7588H12.8574C13.2552 14.7588 13.6368 14.6008 13.9181 14.3194C14.1994 14.0381 14.3574 13.6566 14.3574 13.2588V5.00879H15.1074V0.508789ZM1.60742 2.00879H13.6074V3.50879H1.60742V2.00879ZM12.8574 13.2588H2.35742V5.00879H12.8574V13.2588ZM5.35742 6.50879H9.85742C9.85742 6.90661 9.69939 7.28814 9.41808 7.56945C9.13678 7.85075 8.75525 8.00879 8.35742 8.00879H6.85742C6.4596 8.00879 6.07807 7.85075 5.79676 7.56945C5.51546 7.28814 5.35742 6.90661 5.35742 6.50879Z" fill="black"/>
</svg>
