<svg width="27" height="27" viewBox="0 0 27 27" fill="none" xmlns="http://www.w3.org/2000/svg">
<g clip-path="url(#clip0_3085_1453)">
<path d="M21.8557 22.2991L17.7477 18.1911C18.4583 17.3591 19.013 16.4188 19.4117 15.3701C19.8103 14.3215 20.0097 13.2338 20.0097 12.1071C20.0097 10.3911 19.5763 8.79646 18.7097 7.32313C17.8777 5.88446 16.7423 4.74046 15.3037 3.89113C13.8303 3.02446 12.227 2.59113 10.4937 2.59113C8.76033 2.59113 7.15699 3.02446 5.68366 3.89113C4.24499 4.72313 3.10099 5.84979 2.25166 7.27113C1.38499 8.76179 0.95166 10.3695 0.95166 12.0941C0.95166 13.8188 1.38499 15.4178 2.25166 16.8911C3.08366 18.3298 4.21033 19.4738 5.63166 20.3231C7.12233 21.2071 8.73433 21.6491 10.4677 21.6491C11.5943 21.6491 12.682 21.4498 13.7307 21.0511C14.7793 20.6525 15.7197 20.0978 16.5517 19.3871L20.6597 23.4951C20.7117 23.5471 20.7897 23.5948 20.8937 23.6381C20.9977 23.6815 21.1017 23.7031 21.2057 23.7031C21.3097 23.7031 21.4137 23.6815 21.5177 23.6381C21.6217 23.5948 21.6997 23.5471 21.7517 23.4951C21.9597 23.2871 22.068 23.0791 22.0767 22.8711C22.0853 22.6631 22.0117 22.4725 21.8557 22.2991ZM2.66766 12.0031C2.66766 10.5818 3.02299 9.26446 3.73366 8.05113C4.42699 6.88979 5.35433 5.96246 6.51566 5.26913C7.72899 4.55846 9.04633 4.20313 10.4677 4.20313C11.889 4.20313 13.2063 4.56713 14.4197 5.29513C15.5983 5.98846 16.5343 6.93313 17.2277 8.12913C17.921 9.32513 18.2677 10.6251 18.2677 12.0291C18.2677 13.4331 17.9037 14.7418 17.1757 15.9551C16.4823 17.1338 15.5377 18.0698 14.3417 18.7631C13.1457 19.4565 11.8543 19.8031 10.4677 19.8031C9.06366 19.8378 7.74633 19.4998 6.51566 18.7891C5.35433 18.1131 4.42266 17.1685 3.72066 15.9551C3.01866 14.7418 2.66766 13.4245 2.66766 12.0031Z" fill="black"/>
</g>
<defs>
<clipPath id="clip0_3085_1453">
<rect width="26" height="26" fill="white" transform="matrix(1 0 0 -1 0.69165 26.0947)"/>
</clipPath>
</defs>
</svg>
