<svg width="15" height="15" viewBox="0 0 15 15" fill="none" xmlns="http://www.w3.org/2000/svg">
<g clip-path="url(#clip0_880_18618)">
<path d="M13.2774 7.33749C13.2774 7.30949 13.2657 7.28382 13.2424 7.26049C13.2191 7.23715 13.1934 7.22549 13.1654 7.22549L10.8274 4.88749C10.7341 4.80349 10.6267 4.76149 10.5054 4.76149C10.3841 4.76149 10.2767 4.80349 10.1834 4.88749C10.0901 4.97149 10.0457 5.07882 10.0504 5.20949C10.0551 5.34015 10.0994 5.44749 10.1834 5.53149L11.7654 7.11349H1.1954C1.07407 7.11349 0.966732 7.15549 0.873398 7.23949C0.780065 7.32349 0.733398 7.43782 0.733398 7.58249C0.733398 7.72715 0.775398 7.83915 0.859398 7.91849C0.943398 7.99782 1.0554 8.03749 1.1954 8.03749H11.8214L10.2394 9.61949C10.1554 9.70349 10.1134 9.80849 10.1134 9.93449C10.1134 10.0605 10.1554 10.1702 10.2394 10.2635C10.2674 10.2915 10.3094 10.3172 10.3654 10.3405C10.4214 10.3638 10.4774 10.3755 10.5334 10.3755C10.5894 10.3755 10.6454 10.3638 10.7014 10.3405C10.7574 10.3172 10.7994 10.2915 10.8274 10.2635L13.1654 7.92549C13.1841 7.90682 13.2027 7.88349 13.2214 7.85549C13.2401 7.82749 13.2587 7.81349 13.2774 7.81349C13.3054 7.69215 13.3194 7.59882 13.3194 7.53349C13.3194 7.46815 13.3054 7.40282 13.2774 7.33749Z" fill="#212529"/>
</g>
<defs>
<clipPath id="clip0_880_18618">
<rect width="14" height="14" fill="white" transform="matrix(1 0 0 -1 0.613281 14.5195)"/>
</clipPath>
</defs>
</svg>
