<svg width="16" height="16" viewBox="0 0 16 16" fill="none" xmlns="http://www.w3.org/2000/svg">
<g clip-path="url(#clip0_77_1345)">
<path d="M14.5889 5.01406C14.5989 5.10406 14.6039 5.23906 14.6039 5.41906C14.6039 6.45906 14.4139 7.48406 14.0339 8.49406C13.6439 9.55406 13.0839 10.4941 12.3539 11.3141C11.5739 12.1941 10.6589 12.8791 9.60891 13.3691C8.46891 13.8991 7.21891 14.1641 5.85891 14.1641C4.99891 14.1641 4.16891 14.0466 3.36891 13.8116C2.56891 13.5766 1.82391 13.2341 1.13391 12.7841C1.39391 12.8141 1.64391 12.8291 1.88391 12.8291C2.58391 12.8291 3.26141 12.7141 3.91641 12.4841C4.57141 12.2541 5.16391 11.9291 5.69391 11.5091C5.02391 11.4991 4.42641 11.2941 3.90141 10.8941C3.37641 10.4941 3.01391 9.98906 2.81391 9.37906C3.01391 9.40906 3.20891 9.42406 3.39891 9.42406C3.69891 9.42406 3.96891 9.38906 4.20891 9.31906C3.73891 9.22906 3.31891 9.03906 2.94891 8.74906C2.57891 8.45906 2.28641 8.10156 2.07141 7.67656C1.85641 7.25156 1.74891 6.79406 1.74891 6.30406V6.25906C2.15891 6.49906 2.61891 6.62906 3.12891 6.64906C2.70891 6.37906 2.37641 6.01656 2.13141 5.56156C1.88641 5.10656 1.76391 4.61906 1.76391 4.09906C1.76391 3.53906 1.90391 3.01906 2.18391 2.53906C2.95391 3.48906 3.87891 4.24406 4.95891 4.80406C6.06891 5.37406 7.25391 5.69406 8.51391 5.76406C8.46391 5.51406 8.43891 5.27906 8.43891 5.05906C8.43891 4.49906 8.57641 3.98406 8.85141 3.51406C9.12641 3.04406 9.49891 2.67156 9.96891 2.39656C10.4389 2.12156 10.9539 1.98406 11.5139 1.98406C11.9539 1.98406 12.3689 2.07156 12.7589 2.24656C13.1489 2.42156 13.4839 2.65906 13.7639 2.95906C14.4739 2.81906 15.1239 2.56906 15.7139 2.20906C15.6039 2.56906 15.4314 2.89406 15.1964 3.18406C14.9614 3.47406 14.6839 3.71406 14.3639 3.90406C14.9339 3.84406 15.5239 3.68406 16.1339 3.42406C15.7139 4.04406 15.1989 4.57406 14.5889 5.01406Z" fill="#1DA1F2"/>
</g>
<defs>
<clipPath id="clip0_77_1345">
<rect width="15" height="15" fill="white" transform="matrix(1 0 0 -1 0.973877 15.5742)"/>
</clipPath>
</defs>
</svg>
